<svg xmlns="http://www.w3.org/2000/svg" style="display: none;">
  <defs>
    <symbol id="Vector" width="14" height="14" fill="none" viewBox="0 0 14 14">
      <path fill="#D9D9D9" d="m5.5 9.59 5.33-5.33-.59-.59L5.5 8.41 3.125 6.035l-.59.59L5.5 9.59Zm-4.153 3.743c-.384 0-.705-.128-.961-.385A1.308 1.308 0 0 1 0 11.987V1.347C0 .963.129.642.386.386.643.129.963 0 1.346 0h10.642c.383 0 .703.129.96.386a1.3 1.3 0 0 1 .385.96v10.642c0 .383-.128.703-.385.96a1.3 1.3 0 0 1-.961.385H1.347Zm0-.833h10.64a.491.491 0 0 0 .353-.16.486.486 0 0 0 .16-.353V1.347a.492.492 0 0 0-.16-.354.486.486 0 0 0-.353-.16H1.347a.493.493 0 0 0-.354.16.486.486 0 0 0-.16.354v10.64c0 .128.054.246.16.353a.49.49 0 0 0 .353.16"/>
    </symbol>
  </defs>
</svg>
