<svg xmlns="http://www.w3.org/2000/svg">
<symbol id="back" width="20" height="20" fill="none" viewBox="0 0 20 20"><path fill="#101115" d="M12.942 15.808a.624.624 0 1 1-.884.884l-6.25-6.25a.626.626 0 0 1 0-.884l6.25-6.25a.626.626 0 0 1 .884.884L7.134 10l5.808 5.808z"/></symbol>
<symbol id="chat" width="20" height="20" fill="none" viewBox="0 0 20 20"><path fill="#101115" d="M7.834 8.665a.667.667 0 0 1 .666-.667h4a.667.667 0 0 1 0 1.334h-4a.667.667 0 0 1-.666-.667zm.666 2a.667.667 0 0 0 0 1.333h2.667a.667.667 0 1 0 0-1.333H8.5zm-6-.667a8 8 0 1 1 3.995 6.927l-3.117 1.04a.666.666 0 0 1-.852-.816l.95-3.321a8 8 0 0 1-.976-3.83zm8-6.666a6.667 6.667 0 0 0-5.733 10.07.667.667 0 0 1 .067.523l-.679 2.373 2.21-.736a.667.667 0 0 1 .569.07 6.667 6.667 0 1 0 3.567-12.3z"/></symbol>
<symbol id="calendar" width="20" height="20" fill="none" viewBox="0 0 20 20"><path fill="#000" d="M16.25 2.5h-1.875v-.625a.625.625 0 1 0-1.25 0V2.5h-6.25v-.625a.625.625 0 0 0-1.25 0V2.5H3.75A1.25 1.25 0 0 0 2.5 3.75v12.5a1.25 1.25 0 0 0 1.25 1.25h12.5a1.25 1.25 0 0 0 1.25-1.25V3.75a1.25 1.25 0 0 0-1.25-1.25zM5.625 3.75v.625a.625.625 0 0 0 1.25 0V3.75h6.25v.625a.625.625 0 1 0 1.25 0V3.75h1.875v2.5H3.75v-2.5h1.875zm10.625 12.5H3.75V7.5h12.5v8.75zm-2.995-6.692a.626.626 0 0 1 0 .884l-3.75 3.75a.626.626 0 0 1-.885 0l-1.875-1.875a.625.625 0 0 1 .885-.884l1.433 1.433 3.307-3.308a.625.625 0 0 1 .885 0z"/></symbol>
<symbol id="calendarFull" width="20" height="20" fill="none" viewBox="0 0 20 20"><path fill="#000" d="M16.25 2.5h-1.875v-.625a.625.625 0 1 0-1.25 0V2.5h-6.25v-.625a.625.625 0 0 0-1.25 0V2.5H3.75A1.25 1.25 0 0 0 2.5 3.75v12.5a1.25 1.25 0 0 0 1.25 1.25h12.5a1.25 1.25 0 0 0 1.25-1.25V3.75a1.25 1.25 0 0 0-1.25-1.25zm-2.995 7.942l-3.75 3.75a.626.626 0 0 1-.885 0l-1.875-1.875a.625.625 0 0 1 .885-.884l1.433 1.433 3.307-3.308a.626.626 0 0 1 .885.884zM3.75 6.25v-2.5h1.875v.625a.625.625 0 0 0 1.25 0V3.75h6.25v.625a.625.625 0 1 0 1.25 0V3.75h1.875v2.5H3.75z"/></symbol>
<symbol id="calendarPlus" width="20" height="20" fill="none" viewBox="0 0 20 20"><path stroke="#101115" stroke-linecap="round" stroke-linejoin="round" stroke-width="1.5" d="M10.417 17.5H5a1.667 1.667 0 0 1-1.667-1.667v-10A1.667 1.667 0 0 1 5 4.167h10a1.667 1.667 0 0 1 1.667 1.666V10m-3.334-7.5v3.333M6.667 2.5v3.333M3.333 9.167h13.334m-3.334 6.666h5m-2.5-2.5v5"/></symbol>
<symbol id="check" width="20" height="20" fill="none" viewBox="0 0 20 20"><path fill="#101115" d="M9 15.833l-4-4.255 1.4-1.49L9 12.856l6.6-7.022 1.4 1.49-8 8.51z"/></symbol>
<symbol id="close" width="16" height="16" fill="none" viewBox="0 0 16 16"><path fill="#101115" d="M8.94 8l4.2-4.193a.67.67 0 0 0-.947-.947L8 7.06l-4.193-4.2a.67.67 0 0 0-.947.947L7.06 8l-4.2 4.193a.666.666 0 0 0 .217 1.093.666.666 0 0 0 .73-.146L8 8.94l4.193 4.2a.665.665 0 0 0 .947 0 .666.666 0 0 0 0-.947L8.94 8z"/></symbol>
<symbol id="file" width="20" height="20" fill="none" viewBox="0 0 20 20"><path fill="#000" d="M13.125 10.833a.625.625 0 0 0-.625-.625h-5a.625.625 0 0 0 0 1.25h5a.625.625 0 0 0 .625-.625zm0 3.334a.625.625 0 0 0-.625-.625h-5a.625.625 0 0 0 0 1.25h5a.625.625 0 0 0 .625-.625z"/><path fill="#000" fill-rule="evenodd" d="M5.833 1.875a2.292 2.292 0 0 0-2.291 2.292v11.666a2.292 2.292 0 0 0 2.291 2.292h8.334a2.291 2.291 0 0 0 2.291-2.292V6.64c0-.317-.103-.626-.295-.88l-2.498-3.306a1.458 1.458 0 0 0-1.163-.579H5.833zM4.792 4.167c0-.575.466-1.042 1.041-1.042h6.042v3.664c0 .345.28.625.625.625h2.708v8.42c0 .574-.466 1.041-1.041 1.041H5.833a1.042 1.042 0 0 1-1.041-1.042V4.167z" clip-rule="evenodd"/></symbol>
<symbol id="fileFull" width="20" height="20" fill="none" viewBox="0 0 20 20"><path fill="#000" fill-rule="evenodd" d="M11.875 2.083a.209.209 0 0 0-.208-.208H5.833a2.292 2.292 0 0 0-2.291 2.292v11.666a2.292 2.292 0 0 0 2.291 2.292h8.334a2.291 2.291 0 0 0 2.291-2.292v-8.21a.208.208 0 0 0-.208-.209H12.5a.625.625 0 0 1-.625-.625V2.083zm.625 8.125a.625.625 0 0 1 0 1.25h-5a.625.625 0 1 1 0-1.25h5zm0 3.334a.625.625 0 1 1 0 1.25h-5a.625.625 0 0 1 0-1.25h5z" clip-rule="evenodd"/><path fill="#000" d="M13.125 2.353c0-.153.16-.25.28-.155.101.082.19.177.27.285l2.51 3.498c.057.08-.005.183-.103.183h-2.749a.208.208 0 0 1-.208-.208V2.353z"/></symbol>
<symbol id="home" width="20" height="20" fill="none" viewBox="0 0 20 20"><path stroke="#000" stroke-linecap="round" stroke-linejoin="round" d="M16.667 15.833V8.75a.834.834 0 0 0-.334-.667L10.5 3.708a.833.833 0 0 0-1 0L3.667 8.083a.833.833 0 0 0-.334.667v7.083a.833.833 0 0 0 .834.834H7.5a.833.833 0 0 0 .833-.834v-2.5a.833.833 0 0 1 .834-.833h1.666a.833.833 0 0 1 .834.833v2.5a.834.834 0 0 0 .833.834h3.333a.833.833 0 0 0 .834-.834z"/></symbol>
<symbol id="homeFull" width="20" height="20" fill="none" viewBox="0 0 20 20"><path fill="#000" stroke="#000" stroke-linecap="round" stroke-linejoin="round" d="M16.667 15.833V8.75a.834.834 0 0 0-.334-.667L10.5 3.708a.833.833 0 0 0-1 0L3.667 8.083a.833.833 0 0 0-.334.667v7.083a.833.833 0 0 0 .834.834H7.5a.833.833 0 0 0 .833-.834v-2.5a.833.833 0 0 1 .834-.833h1.666a.833.833 0 0 1 .834.833v2.5a.834.834 0 0 0 .833.834h3.333a.833.833 0 0 0 .834-.834z"/></symbol>
<symbol id="map" width="20" height="20" fill="none" viewBox="0 0 20 20"><path fill="#000" d="M13 9a3 3 0 1 1-6 0 3 3 0 0 1 6 0zm-1 0a2 2 0 1 0-4 0 2 2 0 0 0 4 0zm2.95 4.955a7.005 7.005 0 0 0-2.271-11.422 7 7 0 0 0-9.68 6.47c0 1.857.738 3.638 2.051 4.952l1.521 1.499 2.043 1.985.133.118c.775.628 1.91.588 2.64-.118l2.435-2.37 1.128-1.114zM5.755 4.756a6 6 0 0 1 10.246 4.12 6.01 6.01 0 0 1-1.58 4.19l-.176.184-1.321 1.304-2.23 2.169-.094.08a1 1 0 0 1-1.2-.001l-.093-.08-2.98-2.905-.572-.567-.176-.183a6.01 6.01 0 0 1 .176-8.311z"/></symbol>
<symbol id="mapFull" width="20" height="20" fill="none" viewBox="0 0 20 20"><path fill="#000" d="M14.95 13.955a7.005 7.005 0 0 0-2.271-11.422 7 7 0 0 0-9.68 6.47c0 1.857.738 3.638 2.051 4.952l1.521 1.499 2.043 1.985.133.118c.775.628 1.91.588 2.64-.118l2.435-2.37 1.128-1.114zM10 12a3 3 0 1 1 0-6 3 3 0 0 1 0 6z"/></symbol>
<symbol id="more" width="20" height="20" fill="none" viewBox="0 0 20 20"><path fill="#101115" d="M10 6.667c.917 0 1.667-.75 1.667-1.667S10.917 3.333 10 3.333 8.333 4.083 8.333 5 9.083 6.667 10 6.667zm0 1.666c-.917 0-1.667.75-1.667 1.667s.75 1.667 1.667 1.667 1.667-.75 1.667-1.667-.75-1.667-1.667-1.667zm0 5c-.917 0-1.667.75-1.667 1.667s.75 1.667 1.667 1.667 1.667-.75 1.667-1.667-.75-1.667-1.667-1.667z"/></symbol>
<symbol id="people" width="20" height="20" fill="none" viewBox="0 0 20 20"><path fill="#000" d="M18.75 17.5s1.25 0 1.25-1.25-1.25-5-6.25-5-6.25 3.75-6.25 5 1.25 1.25 1.25 1.25h10zm-9.973-1.25l-.027-.005c.001-.33.209-1.288.95-2.15.69-.809 1.902-1.595 4.05-1.595 2.146 0 3.359.787 4.05 1.595.741.862.947 1.821.95 2.15l-.01.002-.017.003H8.777zm4.973-7.5a2.5 2.5 0 1 0 0-5 2.5 2.5 0 0 0 0 5zm3.75-2.5a3.75 3.75 0 1 1-7.498 0 3.75 3.75 0 0 1 7.498 0zM8.67 11.6a7.497 7.497 0 0 0-1.537-.309 8.727 8.727 0 0 0-.883-.041c-5 0-6.25 3.75-6.25 5 0 .833.417 1.25 1.25 1.25h5.27a2.8 2.8 0 0 1-.27-1.25c0-1.262.471-2.553 1.362-3.63A6.612 6.612 0 0 1 8.67 11.6zm-2.52.9A6.875 6.875 0 0 0 5 16.25H1.25c0-.325.205-1.287.95-2.155.681-.795 1.865-1.57 3.95-1.594V12.5zM1.875 6.875a3.75 3.75 0 1 1 7.5 0 3.75 3.75 0 0 1-7.5 0zm3.75-2.5a2.5 2.5 0 1 0 0 5 2.5 2.5 0 0 0 0-5z"/></symbol>
<symbol id="peopleFull" width="20" height="20" fill="none" viewBox="0 0 20 20"><path fill="#000" d="M8.75 17.5s-1.25 0-1.25-1.25 1.25-5 6.25-5S20 15 20 16.25s-1.25 1.25-1.25 1.25h-10zm5-7.5a3.75 3.75 0 1 0 0-7.5 3.75 3.75 0 0 0 0 7.5zm-7.23 7.5a2.8 2.8 0 0 1-.27-1.25c0-1.694.85-3.438 2.42-4.65a7.875 7.875 0 0 0-2.42-.35c-5 0-6.25 3.75-6.25 5s1.25 1.25 1.25 1.25h5.27zM5.625 10a3.125 3.125 0 1 0 0-6.25 3.125 3.125 0 0 0 0 6.25z"/></symbol>
<symbol id="person" width="20" height="20" fill="none" viewBox="0 0 20 20"><path fill="#000" d="M10 10a3.75 3.75 0 1 0 0-7.5 3.75 3.75 0 0 0 0 7.5zm2.5-3.75a2.5 2.5 0 1 1-5 0 2.5 2.5 0 0 1 5 0zm5 10c0 1.25-1.25 1.25-1.25 1.25H3.75s-1.25 0-1.25-1.25 1.25-5 7.5-5 7.5 3.75 7.5 5zm-1.25-.005c-.001-.308-.192-1.233-1.04-2.08-.815-.815-2.349-1.665-5.21-1.665-2.861 0-4.395.85-5.21 1.665-.848.848-1.038 1.773-1.04 2.08h12.5z"/></symbol>
<symbol id="personFull" width="20" height="20" fill="none" viewBox="0 0 20 20"><path fill="#000" d="M3.75 17.5s-1.25 0-1.25-1.25 1.25-5 7.5-5 7.5 3.75 7.5 5-1.25 1.25-1.25 1.25H3.75zM10 10a3.75 3.75 0 1 0 0-7.5 3.75 3.75 0 0 0 0 7.5z"/></symbol>
<symbol id="plus" width="20" height="20" fill="none" viewBox="0 0 20 20"><path fill="#101115" d="M15.833 10.832h-5v5H9.167v-5h-5V9.165h5v-5h1.666v5h5v1.667z"/></symbol>
<symbol id="search" width="20" height="20" fill="none" viewBox="0 0 20 20"><path stroke="#101115" stroke-linecap="round" stroke-linejoin="round" stroke-width="1.5" d="M17.5 17.5l-3.62-3.62m0 0a6.666 6.666 0 1 0-9.426-9.426 6.666 6.666 0 0 0 9.427 9.427z"/></symbol>
<symbol id="write" width="20" height="20" fill="none" viewBox="0 0 20 20"><path fill="#101115" d="M6.433 13.713l1.468-.423 8.836-8.942a.38.38 0 0 0-.003-.533l-.529-.535a.369.369 0 0 0-.527-.002l-8.812 8.918-.433 1.517zM17.253 2.22l.529.536a1.9 1.9 0 0 1 .013 2.663L8.69 14.634l-3.137.903a.748.748 0 0 1-.925-.519.75.75 0 0 1-.001-.421l.912-3.2 9.081-9.191a1.846 1.846 0 0 1 2.633.014zm-9.6.96c.414 0 .749.34.749.758a.752.752 0 0 1-.749.758H4.66c-.827 0-1.497.678-1.497 1.514v9.088c0 .837.67 1.515 1.497 1.515h8.98c.827 0 1.497-.678 1.497-1.515V12.27c0-.418.335-.757.749-.757.413 0 .748.339.748.758v3.028c0 1.674-1.34 3.03-2.994 3.03H4.66c-1.653 0-2.993-1.356-2.993-3.03V6.21c0-1.672 1.34-3.03 2.993-3.03h2.993z"/></symbol>
<symbol id="down" width="20" height="20" fill="none" viewBox="0 0 20 20"><path fill="#000" d="M10 12.48a.864.864 0 0 1-.583-.23L5.583 8.417a.79.79 0 0 1-.229-.584.79.79 0 0 1 .23-.583.79.79 0 0 1 .583-.23.79.79 0 0 1 .583.23L10 10.5l3.25-3.25a.79.79 0 0 1 .583-.23.79.79 0 0 1 .584.23.79.79 0 0 1 .229.583.79.79 0 0 1-.23.584l-3.833 3.833a.736.736 0 0 1-.27.178.901.901 0 0 1-.313.051z"/></symbol>
</svg>
